<svg width="19" height="19" viewBox="0 0 19 19" fill="none" xmlns="http://www.w3.org/2000/svg">
<path d="M9.5 5.5625C8.72124 5.5625 7.95996 5.79343 7.31244 6.22609C6.66492 6.65875 6.16024 7.2737 5.86222 7.99318C5.5642 8.71267 5.48623 9.50437 5.63816 10.2682C5.79009 11.032 6.1651 11.7336 6.71577 12.2842C7.26644 12.8349 7.96803 13.2099 8.73183 13.3618C9.49563 13.5138 10.2873 13.4358 11.0068 13.1378C11.7263 12.8398 12.3413 12.3351 12.7739 11.6876C13.2066 11.04 13.4375 10.2788 13.4375 9.5C13.4364 8.45604 13.0212 7.45516 12.283 6.71697C11.5448 5.97878 10.544 5.56359 9.5 5.5625ZM9.5 12.125C8.98082 12.125 8.47331 11.971 8.04163 11.6826C7.60995 11.3942 7.2735 10.9842 7.07482 10.5045C6.87614 10.0249 6.82415 9.49709 6.92544 8.98789C7.02672 8.47869 7.27673 8.01096 7.64384 7.64384C8.01096 7.27673 8.47869 7.02672 8.98789 6.92544C9.49709 6.82415 10.0249 6.87614 10.5045 7.07482C10.9842 7.2735 11.3942 7.60995 11.6826 8.04163C11.971 8.47331 12.125 8.98082 12.125 9.5C12.125 10.1962 11.8484 10.8639 11.3562 11.3562C10.8639 11.8484 10.1962 12.125 9.5 12.125ZM13.4375 0.96875H5.5625C4.34456 0.970053 3.17688 1.45445 2.31567 2.31567C1.45445 3.17688 0.970053 4.34456 0.96875 5.5625V13.4375C0.970053 14.6554 1.45445 15.8231 2.31567 16.6843C3.17688 17.5455 4.34456 18.0299 5.5625 18.0312H13.4375C14.6554 18.0299 15.8231 17.5455 16.6843 16.6843C17.5455 15.8231 18.0299 14.6554 18.0312 13.4375V5.5625C18.0299 4.34456 17.5455 3.17688 16.6843 2.31567C15.8231 1.45445 14.6554 0.970053 13.4375 0.96875ZM16.7188 13.4375C16.7188 14.3077 16.373 15.1423 15.7577 15.7577C15.1423 16.373 14.3077 16.7188 13.4375 16.7188H5.5625C4.69226 16.7188 3.85766 16.373 3.24231 15.7577C2.62695 15.1423 2.28125 14.3077 2.28125 13.4375V5.5625C2.28125 4.69226 2.62695 3.85766 3.24231 3.24231C3.85766 2.62695 4.69226 2.28125 5.5625 2.28125H13.4375C14.3077 2.28125 15.1423 2.62695 15.7577 3.24231C16.373 3.85766 16.7188 4.69226 16.7188 5.5625V13.4375ZM14.75 5.23438C14.75 5.42907 14.6923 5.61938 14.5841 5.78126C14.4759 5.94314 14.3222 6.06931 14.1423 6.14382C13.9625 6.21832 13.7645 6.23782 13.5736 6.19984C13.3826 6.16185 13.2072 6.0681 13.0696 5.93043C12.9319 5.79277 12.8381 5.61737 12.8002 5.42642C12.7622 5.23547 12.7817 5.03754 12.8562 4.85767C12.9307 4.6778 13.0569 4.52406 13.2187 4.4159C13.3806 4.30773 13.5709 4.25 13.7656 4.25C14.0267 4.25 14.2771 4.35371 14.4617 4.53832C14.6463 4.72292 14.75 4.9733 14.75 5.23438Z" fill="#454F5B"/>
</svg>
