<svg width="19" height="19" viewBox="0 0 19 19" fill="none" xmlns="http://www.w3.org/2000/svg">
<path d="M15.6689 3.2963C14.8667 2.48599 13.9112 1.84351 12.8581 1.40635C11.805 0.969182 10.6754 0.74608 9.5352 0.750052C4.7577 0.750052 0.863945 4.6438 0.863945 9.4213C0.863945 10.9526 1.26645 12.4401 2.01895 13.7526L0.793945 18.2501L5.3877 17.0426C6.65645 17.7338 8.0827 18.1013 9.5352 18.1013C14.3127 18.1013 18.2064 14.2076 18.2064 9.43005C18.2064 7.1113 17.3052 4.93255 15.6689 3.2963ZM9.5352 16.6313C8.2402 16.6313 6.97145 16.2813 5.8602 15.6251L5.5977 15.4676L2.8677 16.1851L3.59395 13.5251L3.41895 13.2538C2.69947 12.1049 2.31744 10.7769 2.31645 9.4213C2.31645 5.4488 5.55395 2.2113 9.52645 2.2113C11.4514 2.2113 13.2627 2.9638 14.6189 4.3288C15.2905 4.99727 15.8227 5.79238 16.1847 6.66805C16.5466 7.54372 16.7312 8.48252 16.7277 9.43005C16.7452 13.4026 13.5077 16.6313 9.5352 16.6313ZM13.4902 11.2413C13.2714 11.1363 12.2039 10.6113 12.0114 10.5326C11.8102 10.4626 11.6702 10.4276 11.5214 10.6376C11.3727 10.8563 10.9614 11.3463 10.8389 11.4863C10.7164 11.6351 10.5852 11.6526 10.3664 11.5388C10.1477 11.4338 9.4477 11.1976 8.6252 10.4626C7.9777 9.88505 7.54895 9.1763 7.4177 8.95755C7.2952 8.7388 7.4002 8.62505 7.51395 8.5113C7.6102 8.41505 7.7327 8.25755 7.8377 8.13505C7.9427 8.01255 7.98645 7.9163 8.05645 7.7763C8.12645 7.62755 8.09145 7.50505 8.03895 7.40005C7.98645 7.29505 7.54895 6.22755 7.37395 5.79005C7.19895 5.37005 7.0152 5.42255 6.88395 5.4138H6.46395C6.3152 5.4138 6.0877 5.4663 5.88645 5.68505C5.69395 5.9038 5.13395 6.4288 5.13395 7.4963C5.13395 8.5638 5.9127 9.5963 6.0177 9.7363C6.1227 9.88505 7.54895 12.0726 9.71895 13.0088C10.2352 13.2363 10.6377 13.3676 10.9527 13.4638C11.4689 13.6301 11.9414 13.6038 12.3177 13.5513C12.7377 13.4901 13.6039 13.0263 13.7789 12.5188C13.9627 12.0113 13.9627 11.5826 13.9014 11.4863C13.8402 11.3901 13.7089 11.3463 13.4902 11.2413Z" fill="#454F5B"/>
</svg>
