<svg width="8" height="14" viewBox="0 0 8 14" fill="none" xmlns="http://www.w3.org/2000/svg">
<path d="M0.766602 13.067C0.599935 12.9003 0.516602 12.703 0.516602 12.475C0.516602 12.247 0.599935 12.0499 0.766602 11.8837L5.64993 7.00033L0.749935 2.10033C0.594379 1.94477 0.516602 1.75033 0.516602 1.51699C0.516602 1.28366 0.599935 1.08366 0.766602 0.916992C0.933268 0.750326 1.1306 0.666992 1.3586 0.666992C1.5866 0.666992 1.78371 0.750326 1.94993 0.916992L7.54994 6.53366C7.6166 6.60033 7.66393 6.67255 7.69193 6.75033C7.71993 6.8281 7.73371 6.91144 7.73327 7.00033C7.73327 7.08921 7.71927 7.17255 7.69127 7.25033C7.66327 7.3281 7.61616 7.40033 7.54994 7.46699L1.93327 13.0837C1.77771 13.2392 1.58593 13.317 1.35793 13.317C1.12993 13.317 0.932824 13.2337 0.766602 13.067Z" fill="white"/>
</svg>
