<svg width="230" height="337" viewBox="0 0 230 337" fill="none" xmlns="http://www.w3.org/2000/svg">
<circle cx="27" cy="25" r="4" fill="#B3B3B3"/>
<circle cx="70.8" cy="25" r="4" fill="#B3B3B3"/>
<circle cx="114.6" cy="25" r="4" fill="#B3B3B3"/>
<circle cx="158.4" cy="25" r="4" fill="#B3B3B3"/>
<circle cx="202.2" cy="25" r="4" fill="#B3B3B3"/>
<circle cx="27" cy="72.7139" r="4" fill="#B3B3B3"/>
<circle cx="70.8" cy="72.7139" r="4" fill="#B3B3B3"/>
<circle cx="114.6" cy="72.7139" r="4" fill="#B3B3B3"/>
<circle cx="158.4" cy="72.7139" r="4" fill="#B3B3B3"/>
<circle cx="202.201" cy="72.7139" r="4" fill="#B3B3B3"/>
<circle cx="27" cy="120.428" r="4" fill="#B3B3B3"/>
<circle cx="70.8" cy="120.428" r="4" fill="#B3B3B3"/>
<circle cx="114.6" cy="120.428" r="4" fill="#B3B3B3"/>
<circle cx="158.4" cy="120.428" r="4" fill="#B3B3B3"/>
<circle cx="202.201" cy="120.428" r="4" fill="#B3B3B3"/>
<circle cx="27" cy="168.142" r="4" fill="#B3B3B3"/>
<circle cx="70.8" cy="168.142" r="4" fill="#B3B3B3"/>
<circle cx="114.6" cy="168.142" r="4" fill="#B3B3B3"/>
<circle cx="158.4" cy="168.142" r="4" fill="#B3B3B3"/>
<circle cx="202.201" cy="168.142" r="4" fill="#B3B3B3"/>
<circle cx="27" cy="215.855" r="4" fill="#BA1F1A" fill-opacity="0.42"/>
<circle cx="70.8" cy="215.855" r="4" fill="#BA1F1A" fill-opacity="0.42"/>
<circle cx="114.6" cy="215.855" r="4" fill="#BA1F1A" fill-opacity="0.42"/>
<circle cx="158.4" cy="215.855" r="4" fill="#BA1F1A" fill-opacity="0.42"/>
<circle cx="202.201" cy="215.855" r="4" fill="#BA1F1A" fill-opacity="0.42"/>
<circle cx="27" cy="263.569" r="4" fill="#BA1F1A" fill-opacity="0.42"/>
<circle cx="70.8" cy="263.569" r="4" fill="#BA1F1A" fill-opacity="0.42"/>
<circle cx="114.6" cy="263.569" r="4" fill="#BA1F1A" fill-opacity="0.42"/>
<circle cx="158.4" cy="263.569" r="4" fill="#BA1F1A" fill-opacity="0.42"/>
<circle cx="202.201" cy="263.569" r="4" fill="#BA1F1A" fill-opacity="0.42"/>
<circle cx="27" cy="311.283" r="4" fill="#BA1F1A" fill-opacity="0.42"/>
<circle cx="70.8" cy="311.283" r="4" fill="#BA1F1A" fill-opacity="0.42"/>
<circle cx="114.6" cy="311.283" r="4" fill="#BA1F1A" fill-opacity="0.42"/>
<circle cx="158.4" cy="311.283" r="4" fill="#BA1F1A" fill-opacity="0.42"/>
<circle cx="202.201" cy="311.283" r="4" fill="#BA1F1A" fill-opacity="0.42"/>
</svg>
