<svg width="24" height="24" viewBox="0 0 24 24" fill="none" xmlns="http://www.w3.org/2000/svg">
<path d="M20.46 3.49206C19.3598 2.38078 18.0494 1.49967 16.6052 0.90013C15.1609 0.300592 13.6118 -0.00537612 12.048 7.14833e-05C5.49604 7.14833e-05 0.156059 5.34006 0.156059 11.892C0.156059 13.992 0.708057 16.032 1.74005 17.832L0.0600586 24L6.36004 22.344C8.10004 23.292 10.056 23.796 12.048 23.796C18.6 23.796 23.94 18.456 23.94 11.904C23.94 8.72405 22.704 5.73605 20.46 3.49206ZM12.048 21.78C10.272 21.78 8.53203 21.3 7.00804 20.4L6.64804 20.184L2.90405 21.168L3.90005 17.52L3.66005 17.148C2.67335 15.5724 2.14942 13.7511 2.14805 11.892C2.14805 6.44405 6.58804 2.00407 12.036 2.00407C14.676 2.00407 17.16 3.03606 19.02 4.90806C19.941 5.82481 20.6708 6.91525 21.1673 8.11616C21.6637 9.31707 21.9168 10.6046 21.912 11.904C21.936 17.352 17.496 21.78 12.048 21.78ZM17.472 14.388C17.172 14.244 15.708 13.524 15.444 13.416C15.168 13.32 14.976 13.272 14.772 13.56C14.568 13.86 14.004 14.532 13.836 14.724C13.668 14.928 13.488 14.952 13.188 14.796C12.888 14.652 11.928 14.328 10.8 13.32C9.91203 12.528 9.32403 11.556 9.14403 11.256C8.97603 10.956 9.12003 10.8 9.27603 10.644C9.40803 10.512 9.57603 10.296 9.72003 10.128C9.86403 9.96004 9.92403 9.82804 10.02 9.63604C10.116 9.43204 10.068 9.26404 9.99603 9.12005C9.92403 8.97605 9.32403 7.51205 9.08403 6.91205C8.84403 6.33605 8.59203 6.40805 8.41203 6.39605H7.83604C7.63204 6.39605 7.32004 6.46805 7.04404 6.76805C6.78004 7.06805 6.01204 7.78805 6.01204 9.25204C6.01204 10.716 7.08004 12.132 7.22404 12.324C7.36804 12.528 9.32403 15.528 12.3 16.812C13.008 17.124 13.56 17.304 13.992 17.436C14.7 17.664 15.348 17.628 15.864 17.556C16.44 17.472 17.628 16.836 17.868 16.14C18.12 15.444 18.12 14.856 18.036 14.724C17.952 14.592 17.772 14.532 17.472 14.388Z" fill="black"/>
</svg>
