<svg width="24" height="25" viewBox="0 0 24 25" fill="none" xmlns="http://www.w3.org/2000/svg">
<path d="M14 10.0549V12.9549H16.6C16.8 12.9549 16.9 13.1549 16.9 13.3549L16.5 15.2549C16.5 15.3549 16.3 15.4549 16.2 15.4549H14V22.7549H11V15.5549H9.3C9.1 15.5549 9 15.4549 9 15.2549V13.3549C9 13.1549 9.1 13.0549 9.3 13.0549H11V9.75488C11 8.05488 12.3 6.75488 14 6.75488H16.7C16.9 6.75488 17 6.85488 17 7.05488V9.45488C17 9.65488 16.9 9.75488 16.7 9.75488H14.3C14.1 9.75488 14 9.85488 14 10.0549Z" stroke="#BA1F1A" stroke-miterlimit="10" stroke-linecap="round"/>
<path d="M15 22.7549H9C4 22.7549 2 20.7549 2 15.7549V9.75488C2 4.75488 4 2.75488 9 2.75488H15C20 2.75488 22 4.75488 22 9.75488V15.7549C22 20.7549 20 22.7549 15 22.7549Z" stroke="#BA1F1A" stroke-linecap="round" stroke-linejoin="round"/>
</svg>
