<svg width="33" height="33" viewBox="0 0 33 33" fill="none" xmlns="http://www.w3.org/2000/svg">
<path d="M31.455 25.995C31.455 26.535 31.335 27.09 31.08 27.63C30.825 28.17 30.495 28.68 30.06 29.16C29.325 29.97 28.515 30.555 27.6 30.93C26.7 31.305 25.725 31.5 24.675 31.5C23.145 31.5 21.51 31.14 19.785 30.405C18.06 29.67 16.335 28.68 14.625 27.435C12.9 26.175 11.265 24.78 9.705 23.235C8.16 21.675 6.765 20.04 5.52 18.33C4.29 16.62 3.3 14.91 2.58 13.215C1.86 11.505 1.5 9.87 1.5 8.31C1.5 7.29 1.68 6.315 2.04 5.415C2.4 4.5 2.97 3.66 3.765 2.91C4.725 1.965 5.775 1.5 6.885 1.5C7.305 1.5 7.725 1.59 8.1 1.77C8.49 1.95 8.835 2.22 9.105 2.61L12.585 7.515C12.855 7.89 13.05 8.235 13.185 8.565C13.32 8.88 13.395 9.195 13.395 9.48C13.395 9.84 13.29 10.2 13.08 10.545C12.885 10.89 12.6 11.25 12.24 11.61L11.1 12.795C10.935 12.96 10.86 13.155 10.86 13.395C10.86 13.515 10.875 13.62 10.905 13.74C10.95 13.86 10.995 13.95 11.025 14.04C11.295 14.535 11.76 15.18 12.42 15.96C13.095 16.74 13.815 17.535 14.595 18.33C15.405 19.125 16.185 19.86 16.98 20.535C17.76 21.195 18.405 21.645 18.915 21.915C18.99 21.945 19.08 21.99 19.185 22.035C19.305 22.08 19.425 22.095 19.56 22.095C19.815 22.095 20.01 22.005 20.175 21.84L21.315 20.715C21.69 20.34 22.05 20.055 22.395 19.875C22.74 19.665 23.085 19.56 23.46 19.56C23.745 19.56 24.045 19.62 24.375 19.755C24.705 19.89 25.05 20.085 25.425 20.34L30.39 23.865C30.78 24.135 31.05 24.45 31.215 24.825C31.365 25.2 31.455 25.575 31.455 25.995Z" stroke="#9A9EA6" stroke-width="1.8" stroke-miterlimit="10"/>
<path d="M26.25 12C26.25 11.1 25.545 9.72 24.495 8.595C23.535 7.56 22.26 6.75 21 6.75" stroke="#9A9EA6" stroke-width="1.8" stroke-linecap="round" stroke-linejoin="round"/>
<path d="M31.5 12C31.5 6.195 26.805 1.5 21 1.5" stroke="#9A9EA6" stroke-width="1.8" stroke-linecap="round" stroke-linejoin="round"/>
</svg>
