<svg width="20" height="21" viewBox="0 0 20 21" fill="none" xmlns="http://www.w3.org/2000/svg">
<path d="M19 5.50488C17.8069 5.50364 16.663 5.02914 15.8194 4.18549C14.9757 3.34185 14.5012 2.19798 14.5 1.00488C14.5 0.80597 14.421 0.615205 14.2803 0.474553C14.1397 0.3339 13.9489 0.254883 13.75 0.254883H10C9.80109 0.254883 9.61032 0.3339 9.46967 0.474553C9.32902 0.615205 9.25 0.80597 9.25 1.00488V13.3799C9.24985 13.7154 9.15967 14.0447 8.98887 14.3335C8.81807 14.6223 8.57291 14.86 8.27896 15.0217C7.98501 15.1835 7.65304 15.2634 7.31768 15.2531C6.98232 15.2429 6.65586 15.1428 6.37235 14.9634C6.08883 14.784 5.85865 14.5318 5.70582 14.2331C5.55299 13.9344 5.4831 13.6002 5.50345 13.2653C5.5238 12.9304 5.63364 12.6071 5.82151 12.3291C6.00939 12.0511 6.26841 11.8287 6.57156 11.6849C6.6998 11.624 6.80813 11.528 6.88397 11.408C6.95981 11.2881 7.00005 11.149 7 11.0071V7.00488C7.00005 6.89525 6.97606 6.78694 6.92972 6.68758C6.88339 6.58822 6.81584 6.50023 6.73182 6.4298C6.6478 6.35937 6.54937 6.30821 6.44345 6.27994C6.33752 6.25166 6.22669 6.24695 6.11875 6.26613C2.77281 6.86238 0.25 9.92051 0.25 13.3799C0.25 15.2696 1.00067 17.0818 2.33686 18.418C3.67306 19.7542 5.48533 20.5049 7.375 20.5049C9.26467 20.5049 11.0769 19.7542 12.4131 18.418C13.7493 17.0818 14.5 15.2696 14.5 13.3799V9.65707C15.889 10.3818 17.4333 10.7585 19 10.7549C19.1989 10.7549 19.3897 10.6759 19.5303 10.5352C19.671 10.3946 19.75 10.2038 19.75 10.0049V6.25488C19.75 6.05597 19.671 5.86521 19.5303 5.72455C19.3897 5.5839 19.1989 5.50488 19 5.50488ZM18.25 9.22113C16.7843 9.09126 15.3809 8.56817 14.1878 7.70707C14.0757 7.62644 13.9434 7.57835 13.8057 7.56809C13.668 7.55783 13.5301 7.5858 13.4072 7.64893C13.2844 7.71205 13.1814 7.80786 13.1095 7.92581C13.0376 8.04377 12.9997 8.17927 13 8.31738V13.3799C13 14.8717 12.4074 16.3025 11.3525 17.3574C10.2976 18.4123 8.86684 19.0049 7.375 19.0049C5.88316 19.0049 4.45242 18.4123 3.39752 17.3574C2.34263 16.3025 1.75 14.8717 1.75 13.3799C1.75 10.9518 3.31 8.77395 5.5 7.97988V10.5739C5.01517 10.8979 4.62254 11.3419 4.36037 11.8627C4.09821 12.3836 3.97545 12.9634 4.00407 13.5458C4.03268 14.1282 4.2117 14.6933 4.52366 15.1859C4.83562 15.6785 5.26989 16.0819 5.78414 16.3567C6.29839 16.6316 6.87508 16.7685 7.458 16.7542C8.04091 16.7398 8.61017 16.5747 9.11028 16.2749C9.6104 15.9751 10.0243 15.5509 10.3117 15.0435C10.599 14.5361 10.7501 13.963 10.75 13.3799V1.75488H13.0469C13.2155 3.0759 13.818 4.30355 14.7597 5.24523C15.7013 6.18691 16.929 6.78934 18.25 6.95801V9.22113Z" fill="#BA1F1A"/>
</svg>
