<svg width="24" height="25" viewBox="0 0 24 25" fill="none" xmlns="http://www.w3.org/2000/svg">
<path d="M6.9 21.3549C8.4 22.2549 10.2 22.7549 12 22.7549C17.5 22.7549 22 18.2549 22 12.7549C22 7.25488 17.5 2.75488 12 2.75488C6.5 2.75488 2 7.25488 2 12.7549C2 14.5549 2.5 16.2549 3.3 17.7549L2.44044 21.0609C2.24572 21.8098 2.93892 22.4866 3.68299 22.274L6.9 21.3549Z" stroke="#BA1F1A" stroke-miterlimit="10" stroke-linecap="round" stroke-linejoin="round"/>
<path d="M16.5 15.6034C16.5 15.7654 16.4639 15.9319 16.3873 16.0939C16.3107 16.2559 16.2116 16.4089 16.0809 16.5529C15.86 16.7959 15.6167 16.9714 15.3418 17.0839C15.0714 17.1964 14.7784 17.2549 14.4629 17.2549C14.0033 17.2549 13.512 17.1469 12.9937 16.9264C12.4755 16.7059 11.9572 16.4089 11.4434 16.0354C10.9251 15.6574 10.4339 15.2389 9.9652 14.7754C9.501 14.3074 9.08187 13.8169 8.70781 13.3039C8.33826 12.7909 8.04081 12.2779 7.82449 11.7694C7.60816 11.2564 7.5 10.7659 7.5 10.2979C7.5 9.99188 7.55408 9.69938 7.66224 9.42938C7.77041 9.15488 7.94166 8.90288 8.18052 8.67788C8.46895 8.39438 8.78443 8.25488 9.11793 8.25488C9.24412 8.25488 9.37031 8.28188 9.48297 8.33588C9.60015 8.38988 9.70381 8.47088 9.78493 8.58788L10.8305 10.0594C10.9116 10.1719 10.9702 10.2754 11.0108 10.3744C11.0513 10.4689 11.0739 10.5634 11.0739 10.6489C11.0739 10.7569 11.0423 10.8649 10.9792 10.9684C10.9206 11.0719 10.835 11.1799 10.7268 11.2879L10.3843 11.6434C10.3348 11.6929 10.3122 11.7514 10.3122 11.8234C10.3122 11.8594 10.3167 11.8909 10.3257 11.9269C10.3393 11.9629 10.3528 11.9899 10.3618 12.0169C10.4429 12.1654 10.5826 12.3589 10.7809 12.5929C10.9837 12.8269 11.2 13.0654 11.4344 13.3039C11.6778 13.5424 11.9121 13.7629 12.151 13.9654C12.3853 14.1634 12.5791 14.2984 12.7323 14.3794C12.7549 14.3884 12.7819 14.4019 12.8135 14.4154C12.8495 14.4289 12.8856 14.4334 12.9261 14.4334C13.0028 14.4334 13.0613 14.4064 13.1109 14.3569L13.4534 14.0194C13.5661 13.9069 13.6743 13.8214 13.7779 13.7674C13.8816 13.7044 13.9852 13.6729 14.0979 13.6729C14.1835 13.6729 14.2737 13.6909 14.3728 13.7314C14.472 13.7719 14.5756 13.8304 14.6883 13.9069L16.18 14.9644C16.2972 15.0454 16.3783 15.1399 16.4279 15.2524C16.473 15.3649 16.5 15.4774 16.5 15.6034Z" stroke="#BA1F1A" stroke-miterlimit="10"/>
</svg>
